<svg width="48" height="48" viewBox="0 0 48 48" fill="none" xmlns="http://www.w3.org/2000/svg">
<path d="M1.85619 17.2942L5.86319 20.6332L22.1312 1.06423C24.3722 0.898238 26.6255 1.05688 28.8212 1.53523L6.56619 28.3052L0.867188 23.5572C0.908188 21.3822 1.25019 19.2812 1.85619 17.2942Z" fill="#E80A8A"/>
<path d="M35.4942 4.15186C38.9684 6.19305 41.8486 9.10706 43.8492 12.6049L25.3792 34.8219L3.36719 16.4809L10.9402 7.39386L23.8532 18.1539L35.4932 4.15186H35.4942Z" fill="#29ABE2"/>
<path d="M18.6278 13.798L11.0658 22.894L6.88281 19.409L14.4448 10.313L18.6278 13.798V13.798Z" fill="#292A76"/>
<path d="M4.01953 35.6338L18.9695 17.6138L27.3515 24.5658L11.6495 43.4918C8.51344 41.5215 5.89666 38.8265 4.01953 35.6338V35.6338Z" fill="#F7EA34"/>
<path d="M23.8675 47C36.5705 47 46.8685 36.703 46.8685 24C46.8685 23.142 46.8215 22.294 46.7305 21.46L30.0085 41.574L18.5015 32.07L12.5215 39.308L21.7155 46.902C22.4235 46.967 23.1415 47.001 23.8675 47.001V47Z" fill="#49B749"/>
<path d="M44.8763 33.3699C46.2421 30.3102 46.9204 26.9882 46.8633 23.6379L44.1153 26.9429L35.6863 19.9829L32.6973 23.6029L44.7343 33.5419L44.8763 33.3709V33.3699Z" fill="#F1B61C"/>
<path d="M36.8902 20.9769L33.8892 24.5869L32.6992 23.6029L35.6872 19.9829L36.8892 20.9769H36.8902Z" fill="#097D3F"/>
<path d="M17.0791 45.9832L28.7711 31.8892L32.3841 34.8862L22.3731 46.9522C20.5762 46.8379 18.7989 46.5123 17.0781 45.9822L17.0791 45.9832Z" fill="#F05323"/>
<path d="M22.3757 46.9518L28.1267 40.0198L24.5077 37.0298L18.5137 44.2548L21.7157 46.8998C21.9347 46.9198 22.1547 46.9378 22.3757 46.9518V46.9518Z" fill="#2B3F1B"/>
<path d="M24.5635 29.7328L36.5855 15.2658L33.7695 12.9258L24.1045 24.5558L19.5065 20.6758L17.1445 23.4738L24.5635 29.7338V29.7328Z" fill="#292A76"/>
<path d="M21.5154 31.6018L13.1484 24.6308L18.9704 17.6128L27.3524 24.5658L21.5154 31.6018V31.6018Z" fill="#13A149"/>
<path d="M25.4245 22.9678L24.1045 24.5558L19.5065 20.6758L17.1445 23.4748L23.6815 28.9888L27.3515 24.5658L25.4245 22.9678V22.9678Z" fill="#0C0D1B"/>
<path d="M42.9619 25.9902L44.1159 26.9442L46.8639 23.6392C46.9212 26.9897 46.2429 30.3121 44.8769 33.3722L44.7349 33.5422L39.9609 29.6002L42.9609 25.9902H42.9619Z" fill="#269145"/>
</svg>
